      <svg viewBox="0 0 750 100"><path fill="none" d="M0 0h750v100H0z"/><path fill="currentColor" d="M676.825 22.711v17.347h-7.358c-6.711 0-9.523 2.945-9.523 9.963v27.99h-18.95V22.974h12.693l2.96 6.106c3.88-4.488 8.61-6.37 15.159-6.37h5.02zm-85.1 21.78h22.245c-1.664-5.5-5.63-8.468-11.345-8.468-5.53 0-9.367 3.003-10.9 8.468zm40.524 10.5h-40.861c1.24 6.314 5.25 9.576 11.237 9.576 4.427 0 8.124-1.94 9.95-5.164h18.861c-3.872 12.56-15.006 20.409-28.811 20.409-17.17 0-29.896-12.55-29.896-29.366 0-16.869 12.623-29.274 29.896-29.274 17.735 0 30.017 12.655 30.017 28.797 0 1.659-.145 3.32-.393 5.021zm-85.23-6.102c0-6.949-4.886-11.994-11.707-11.994-6.807 0-11.748 5.045-11.748 11.994 0 7.014 4.882 12.058 11.745 12.058 6.807 0 11.71-5.044 11.71-12.058zm17.724-25.914v48.92c0 17.29-11.324 28.005-29.5 28.005-15.613 0-26.544-7.872-29.08-20.915h18.29c1.316 3.68 6.012 5.66 10.614 5.66 6.353 0 11.458-4.037 11.458-10.583v-1.64c-4.137 2.625-9.047 4.134-14.362 4.134-15.774 0-27.502-11.74-27.502-27.667 0-15.69 11.728-27.676 27.502-27.676 6.663 0 12.695 2.391 17.36 6.379l2.405-4.617h12.815zm-89.048-1.626c-7.114 0-13.225 2.733-17.322 7.3l-2.604-5.674h-13.294V78.01h18.954V48.62c0-7.004 3.397-11.132 9.308-11.132 4.772 0 7.18 3.179 7.18 9.581V78.01h18.955V44.45c0-14.02-8.395-23.1-21.177-23.1zm-63.83 1.623h18.954v55.035h-18.954V22.972zM412.01 0h18.662v16.09H412.01V0zm-12.382 22.711c-6.553 0-11.28 1.882-15.158 6.37l-2.956-6.106H368.81V78.01h18.959V50.02c0-7.017 2.811-9.962 9.522-9.962h7.356V22.71h-5.02zm-57.936 27.776c0-7.226-5.22-12.592-12.319-12.592-7.1 0-12.32 5.366-12.32 12.592 0 7.232 5.22 12.599 12.32 12.599 7.055 0 12.32-5.367 12.32-12.599zm19.072.004c0 17.146-12.03 29.38-28.856 29.38-4.974 0-9.532-1.31-13.415-3.656v21.666h-18.737V22.975h12.888l2.373 4.372c4.527-3.913 10.352-6.177 16.891-6.177 16.826 0 28.856 12.173 28.856 29.32zM267.34 79.812c14.628 0 24.332-7.527 24.332-19.027 0-13.958-11.558-15.765-20.25-17.31-5.23-.929-9.44-1.66-9.44-4.792 0-2.55 2.043-4.055 5.082-4.055 3.435 0 5.798 1.635 5.798 5.149h17.75c-.215-11.152-9.3-18.607-23.313-18.607-14.1 0-23.5 7.122-23.5 18.152 0 13.348 11.31 15.923 19.845 17.308 5.288.875 9.453 1.781 9.453 4.954 0 2.846-2.63 4.258-5.399 4.258-3.596 0-6.397-1.853-6.397-5.877h-18.245c.172 11.927 9.288 19.847 24.284 19.847zM194.3 78.01h18.956V3.102h-18.955V78.01zm-49.27-33.519h22.247c-1.663-5.5-5.629-8.468-11.347-8.468-5.526 0-9.368 3.003-10.9 8.468zm40.53 10.5h-40.865c1.24 6.314 5.25 9.576 11.235 9.576 4.43 0 8.127-1.94 9.949-5.164h18.865c-3.876 12.56-15.007 20.409-28.814 20.409-17.17 0-29.89-12.55-29.89-29.366 0-16.869 12.62-29.274 29.89-29.274 17.738 0 30.02 12.655 30.02 28.797 0 1.659-.144 3.32-.39 5.021zm-58.245 23.02L109.03 48.957l17.054-25.983h-20.63l-8.316 13.858-7.948-13.858H68.264l16.915 26.48L66.927 78.01H87.86l9.23-16.302 9.047 16.302h21.18zM43.808 50.475c0-7.142-5.22-12.508-12.32-12.508-7.142 0-12.316 5.366-12.316 12.508 0 7.188 5.22 12.551 12.316 12.551 7.1 0 12.32-5.363 12.32-12.551zm18.027-27.561v55.033H47.184l-1.623-3.893c-4.51 3.652-10.215 5.757-16.605 5.757C12.126 79.812.1 67.534.1 50.43c0-17.043 12.026-29.175 28.855-29.175 6.481 0 12.272 2.167 16.816 5.915l1.936-4.256h14.128z"/><path fill="currentColor" d="M687.887 77.941h62.108V63.996h-62.108v13.945z"/></svg>
