<svg viewBox="0 0 373.333 140.667"><path fill="currentColor" d="M107.407 104.731c0-4.206 3.422-7.626 7.626-7.626 4.205 0 7.626 3.42 7.626 7.626 0 4.204-3.421 7.626-7.626 7.626-4.204 0-7.626-3.422-7.626-7.626m-20.592 0c0 15.584 12.632 28.216 28.217 28.216 15.586 0 28.216-12.632 28.216-28.216 0-15.586-12.63-28.217-28.216-28.217-15.584 0-28.217 12.631-28.217 28.217"/><path fill="currentColor" d="M26.923 104.731c0-4.206 3.422-7.626 7.627-7.626s7.625 3.42 7.625 7.626c0 4.204-3.42 7.626-7.625 7.626-4.204 0-7.627-3.422-7.627-7.626m-20.59 0c0 15.584 12.632 28.216 28.217 28.216s28.216-12.632 28.216-28.216c0-15.586-12.631-28.217-28.216-28.217S6.333 89.145 6.333 104.731"/><path fill="currentColor" d="M74.249 6.882c-15.584 0-28.217 12.632-28.217 28.217 0 15.584 12.633 28.216 28.217 28.216 15.585 0 28.217-12.632 28.217-28.216-.001-15.584-12.633-28.217-28.217-28.217zm0 35.844c-4.205 0-7.626-3.421-7.626-7.626 0-4.206 3.421-7.627 7.626-7.627s7.626 3.421 7.626 7.627c0 4.205-3.421 7.626-7.626 7.626z"/><g fill="currentColor"><path d="M240.891 95.458c0-20.423-14.707-35.132-33.387-35.132-9.55 0-16.242 3.834-20.912 9.69V28.471h-14.568v100.375h14.568V120.9c4.67 5.855 11.362 9.689 20.912 9.689 18.68 0 33.387-14.709 33.387-35.131m-14.985 0c0 11.711-7.599 21.399-20.146 21.399-11.989 0-20.144-9.201-20.144-21.399 0-12.197 8.154-21.398 20.144-21.398 12.547-.001 20.146 9.687 20.146 21.398M293.193 75.313V62.069h-25.581V41.855h-14.638v62.805c0 17.774 8.854 25.93 23.978 25.93 8.435 0 15.127-2.998 20.493-6.622l-5.784-11.642c-3.974 2.511-8.923 4.531-13.453 4.531-5.856 0-10.596-3.556-10.596-12.477V75.313h25.581zM361.425 65.331c-6.469-3.143-14.492-4.934-23.21-4.934-17.008 0-27.602 8.225-27.602 21.399 0 10.805 7.806 17.565 22.652 19.587l6.972.906c8.015 1.115 11.57 3.556 11.57 7.389 0 5.02-5.159 8.156-15.195 8.156-10.806 0-17.287-3.137-22.027-6.831l-6.76 10.943c9.688 7.25 21.815 8.574 28.647 8.574 19.239 0 30.392-8.992 30.392-21.818 0-11.432-8.644-17.565-23.212-19.728l-6.9-1.044c-6.135-.905-11.014-2.16-11.014-6.9s4.6-7.947 12.616-7.947c6.788 0 13.444 2.157 17.888 4.275l5.183-12.027z"/></g></svg>