<svg version="1.1" xmlns="http://www.w3.org/2000/svg" xmlns:xlink="http://www.w3.org/1999/xlink" x="0px" y="0px" viewBox="0 0 283.5 204.1" style="enable-background:new 0 0 283.5 204.1;" xml:space="preserve">
  <path d="M75.1,75.5V54.8H47.4C21.3,54.8,0,76,0,102.1v47.3h20.7V119h34V98.2H21.1C23,85.4,34,75.5,47.4,75.5H75.1z"/>
  <path d="M160.3,75.5V54.8h-32.6c-26.1,0-47.3,21.2-47.3,47.3s21.2,47.3,47.3,47.3h32.6v-20.7h-32.6c-14.6,0-26.6-11.9-26.6-26.6c0-14.6,11.9-26.6,26.6-26.6H160.3z"/>
  <path d="M200.6,59.6l-2.1-2c-2-1.8-4.7-2.9-7.6-2.9c-6.3,0-11.4,5.1-11.4,11.4v83.2h20.7V87.2c0,0,16,14.6,19.4,17.7s7,5.5,11.8,5.5V87.7L200.6,59.6z"/>
  <path fill="#00de00" d="M262.4,59.6l2.1-2c2-1.8,4.7-2.9,7.6-2.9c6.3,0,11.4,5.1,11.4,11.4v83.2h-20.7V87.2c0,0-16,14.6-19.4,17.7s-7,5.5-11.8,5.5V87.7L262.4,59.6z"/>
</svg>
