<svg viewBox="0 0 283.5 204.1"><path fill="currentColor" d="M75.1 75.5V54.8H47.4C21.3 54.8 0 76 0 102.1v47.3h20.7V119h34V98.2H21.1C23 85.4 34 75.5 47.4 75.5h27.7zM160.3 75.5V54.8h-32.6c-26.1 0-47.3 21.2-47.3 47.3s21.2 47.3 47.3 47.3h32.6v-20.7h-32.6c-14.6 0-26.6-11.9-26.6-26.6 0-14.6 11.9-26.6 26.6-26.6h32.6zM200.6 59.6l-2.1-2c-2-1.8-4.7-2.9-7.6-2.9-6.3 0-11.4 5.1-11.4 11.4v83.2h20.7V87.2s16 14.6 19.4 17.7 7 5.5 11.8 5.5V87.7l-30.8-28.1z"/><path fill="currentColor" d="m262.4 59.6 2.1-2c2-1.8 4.7-2.9 7.6-2.9 6.3 0 11.4 5.1 11.4 11.4v83.2h-20.7V87.2s-16 14.6-19.4 17.7-7 5.5-11.8 5.5V87.7l30.8-28.1z"/></svg>