<svg viewBox="0 0 1021 210.92"><path fill="currentColor" d="M952.646 103.618 1019.321 0h-46.479l-42.984 68.677-43-68.591h-46.486L907.035 103.7l-68.5 107.22h46.787l44.45-72.292 44.433 72.292h46.8ZM826.918 172.21H722.241V124.7h104.677V86.148H722.241V38.556h104.677V.086H684.875v210.748h142.043ZM668.448.086H504.683v38.556H567.9v172.192h37.435V38.556h63.167Zm-180.126 0h-37.4v210.748h37.432Zm-51.468 105.425a107.161 107.161 0 0 0-30-74.51A100.965 100.965 0 0 0 334.517.086h-79.543v210.748h79.543a100.964 100.964 0 0 0 72.329-30.909 107.158 107.158 0 0 0 30.008-74.5Zm-37.419-.086a68.46 68.46 0 0 1-4.926 25.588 66.87 66.87 0 0 1-14.074 21.687 64.682 64.682 0 0 1-21.072 14.47 63.146 63.146 0 0 1-24.848 5.041h-42.109V38.556h42.111a63.141 63.141 0 0 1 24.868 5.044 64.689 64.689 0 0 1 21.083 14.5 66.879 66.879 0 0 1 14.067 21.712 68.457 68.457 0 0 1 4.9 25.613ZM236.275.086h-37.433v146.081L93.581.086H56.149v210.748h37.432V64.753l105.278 146.081h37.432Zm-198.859 0H0v210.748h37.435Z"/></svg>