<svg viewBox="0 0 1050 225"><path d="M38.44 70.277C45.84 59.291 56.6 51.444 72.295 51.444c18.16 0 29.82 8.52 34.976 22.42 7.398-12.555 18.833-22.42 36.993-22.42 27.802 0 39.46 17.712 39.46 43.496v54.257c0 11.434-5.829 15.022-14.125 15.022h-3.138c-8.52 0-14.35-3.364-14.35-15.022v-49.1c0-14.574-6.501-22.197-19.057-22.197-9.192 0-17.264 5.605-21.748 13.452v57.845c0 11.434-5.829 15.022-13.9 15.022h-3.363c-8.296 0-14.35-3.364-14.35-15.022v-48.428c0-15.246-6.277-22.869-18.832-22.869-9.193 0-17.264 5.605-21.748 13.452v57.845c0 11.434-5.83 15.022-13.9 15.022h-3.364c-8.52 0-14.349-3.364-14.349-15.022v-92.82c0-.897 5.605-3.588 11.883-3.588 8.071 0 16.815 3.587 19.057 17.488Zm202.157 74.884c15.695 0 26.68-10.313 26.68-24.662v-6.278l-5.829.224c-24.886.673-37.89 5.605-37.89 17.488 0 8.072 6.502 13.228 17.04 13.228Zm26.68-48.204c0-14.124-7.847-21.747-22.42-21.747-15.246 0-23.093 8.295-27.128 16.815 0 .448-20.403 1.12-20.403-13.452 0-13.677 16.143-27.129 49.549-27.129 34.527 0 51.567 15.694 51.567 45.065v64.795c0 1.57-5.83 3.587-11.883 3.587-9.865 0-16.815-5.38-18.609-17.488-7.847 11.435-21.523 18.385-37.89 18.385-22.869 0-36.77-13.004-36.77-31.613 0-25.11 22.42-36.545 70.4-37.218h3.588Zm77.725-25.559c4.484-12.555 13.452-19.954 26.68-19.954 12.78 0 20.402 7.174 20.402 18.385 0 12.555-9.64 17.04-10.089 16.59-3.363-3.138-8.295-5.38-14.349-5.38-15.47 0-22.196 13.452-22.196 35.424v32.734c0 11.434-5.83 15.022-13.9 15.022h-3.364c-8.52 0-14.349-3.364-14.349-15.022v-92.82c0-.897 5.605-3.588 11.883-3.588 8.296 0 17.264 3.812 19.282 18.61Zm86.02 41.478v36.32c0 11.435-5.83 15.023-13.901 15.023h-3.364c-8.52 0-14.349-3.364-14.349-15.022V11.087c0-1.12 5.606-3.587 11.883-3.587 9.417 0 19.73 4.932 19.73 25.335v68.606l30.716-38.787c5.157-7.399 11.883-10.089 17.264-10.089 10.313 0 17.936 9.192 17.04 10.762l-34.304 42.823 38.787 47.755c.897 1.57-7.174 10.762-17.263 10.762-5.83 0-12.332-2.466-17.937-10.09l-34.303-41.701Zm96.332-14.125h53.585c-.673-15.246-10.314-25.335-25.56-25.335-14.797 0-26.007 10.538-28.025 25.335Zm0 18.385c2.242 16.367 14.573 26.007 31.613 26.007 16.591 0 25.783-7.398 30.94-16.142.224-.449 15.246 1.57 15.246 14.349 0 11.658-16.815 24.886-47.307 24.886-35.649 0-59.19-22.196-59.19-56.723 0-33.407 23.99-58.069 57.172-58.069 32.285 0 54.482 22.645 54.482 54.706v2.242c-.225 5.605-1.794 8.744-7.623 8.744h-75.333Zm102.387-38.563h-5.381c-8.968 0-13.228-3.812-13.228-10.986v-2.018c0-7.623 4.26-11.659 13.228-11.659h5.38v-13.9c0-10.314 5.381-15.246 14.35-15.246h2.69c8.52 0 14.125 3.587 14.125 15.246v13.9h19.057c8.968 0 12.78 3.812 12.78 11.21v1.794c0 7.623-4.036 11.659-13.228 11.659h-19.282v46.634c0 10.762 3.588 16.143 12.107 16.143 6.502 0 10.762-3.14 14.125-7.399.449-.673 7.623 3.587 7.623 12.331 0 10.986-10.986 19.954-28.922 19.954-24.214 0-35.424-12.78-35.424-37.442V78.573Zm117.184 84.749c-15.695 1.12-27.353 6.277-27.353 15.021 0 7.623 8.968 12.332 27.128 12.332s28.25-4.933 28.25-13.453c0-8.744-13.676-10.761-28.025-13.9Zm.224-50.222c12.33 0 20.85-8.296 20.85-20.627 0-12.107-8.52-20.402-21.074-20.402-12.108 0-20.627 8.071-20.627 20.402 0 12.331 8.744 20.627 20.85 20.627Zm23.541-56.724 4.708-8.968c4.26-7.847 8.744-10.986 15.695-10.986 11.21 0 16.142 12.78 15.47 13.453 0 0-18.833 18.16-19.058 18.16 6.278 6.502 9.865 15.022 9.865 24.438 0 23.317-19.505 39.236-49.997 39.236h-1.57c-.224.673-.448 1.57-.448 2.242 0 6.054 10.538 6.726 28.25 11.21 15.47 4.26 31.613 12.556 31.613 30.94 0 21.076-21.748 34.528-59.19 34.528-39.012 0-56.5-9.641-56.5-30.492 0-15.246 14.35-25.56 34.304-28.25-2.69-2.466-4.036-5.829-4.036-10.089 0-5.157 3.139-9.865 7.399-12.78-18.61-5.38-30.044-18.833-30.044-36.096 0-23.542 20.851-41.254 49.774-41.254 8.52 0 16.59 1.57 23.765 4.708Zm91.625 109.86c-34.752 0-58.293-23.093-58.293-57.396 0-33.855 23.99-57.396 58.741-57.396 34.528 0 58.069 23.541 58.069 57.62 0 34.08-23.541 57.172-58.517 57.172Zm.224-24.886c17.488 0 30.492-13.677 30.492-32.286 0-19.057-12.78-32.958-30.492-32.958-17.712 0-30.716 13.677-30.716 32.734 0 18.833 13.004 32.51 30.716 32.51Zm121.444 24.886c-34.752 0-58.293-23.093-58.293-57.396 0-33.855 23.99-57.396 58.741-57.396 34.528 0 58.069 23.541 58.069 57.62 0 34.08-23.541 57.172-58.517 57.172Zm.224-24.886c17.488 0 30.492-13.677 30.492-32.286 0-19.057-12.78-32.958-30.492-32.958-17.712 0-30.716 13.677-30.716 32.734 0 18.833 13.004 32.51 30.716 32.51Z" fill="currentColor" fill-rule="evenodd"/></svg>