<svg viewBox="0 0 1129 509" xmlns="http://www.w3.org/2000/svg" xml:space="preserve" style="fill-rule:evenodd;clip-rule:evenodd;stroke-linejoin:round;stroke-miterlimit:2"><path style="fill:currentColor;fill-rule:nonzero" d="M549.207 402.837h14.878v7.404h-14.878zM541.767 434.751c.025 4.836-3.758 8.793-8.379 8.793h-68.306c-4.622 0-8.405-3.957-8.444-8.726v-67.549c.039-4.904 3.822-8.862 8.444-8.862h68.306c4.621 0 8.404 3.958 8.379 8.795v67.549Z" transform="translate(-1902.66 -1493.36) scale(4.16667)"/><path d="M510.482 428.726h-22.514c-9.099 0-16.504-7.43-16.504-16.565v-38.947h7.405v38.947c0 5.052 4.082 9.161 9.099 9.161h22.514c5.018 0 9.099-4.093 9.099-9.125v-27.876h7.405v27.876c0 9.114-7.405 16.529-16.504 16.529Z" style="fill:#fff;fill-rule:nonzero" transform="translate(-1902.66 -1493.36) scale(4.16667)"/><path d="M563.984 391.726h22.217v37.03h7.402v-37.03h22.215v-7.404h-51.834v7.404ZM719.447 391.726v29.606h-25.986c-4.027 0-7.305-3.277-7.305-7.3v-15.006c0-4.023 3.278-7.3 7.305-7.3h25.986Zm0-18.514v11.11h-25.986c-8.109 0-14.709 6.598-14.709 14.708l.004 12.604h-.002l-.002 2.394c0 8.11 6.6 14.708 14.709 14.708h33.391v-55.524h-7.405ZM633.654 421.348c-3.802 0-6.675-3.14-6.716-7.321l.009-.286c0-4.17 2.826-7.197 6.717-7.197h26.578v14.804h-26.588Zm19.379-37.021v-.005h-26.058v7.404h25.968c4.123.168 7.299 3.278 7.299 7.305v.109h-26.578c-8.016 0-14.07 6.225-14.119 14.496l-.012.301c0 8.308 6.203 14.816 14.121 14.816h26.588v.003h7.404v-29.725c0-8.078-6.33-14.709-14.613-14.704Z" style="fill:currentColor;fill-rule:nonzero" transform="translate(-1902.66 -1493.36) scale(4.16667)"/><path d="M560.804 458.808c-.092.51-.247.966-.467 1.368a3.428 3.428 0 0 1-.825 1.017 3.65 3.65 0 0 1-1.124.635 4.07 4.07 0 0 1-1.36.221 3.959 3.959 0 0 1-1.522-.291 3.797 3.797 0 0 1-1.261-.84 3.051 3.051 0 0 1-.588-.795 3.553 3.553 0 0 1-.306-.925 7.006 7.006 0 0 1-.115-1.162c-.01-.433-.015-.94-.015-1.521s.005-1.088.015-1.521c.01-.433.049-.821.115-1.162.066-.341.168-.65.306-.925.137-.276.333-.54.588-.795a3.8 3.8 0 0 1 1.261-.841c.474-.193.981-.29 1.522-.29.489 0 .942.073 1.36.222.418.147.793.359 1.124.634.331.275.606.614.825 1.016.22.403.375.86.467 1.369h-1.193c-.142-.673-.438-1.208-.886-1.605-.449-.398-1.015-.597-1.697-.597-.357 0-.701.067-1.032.199a2.384 2.384 0 0 0-.849.566 2.259 2.259 0 0 0-.413.557c-.102.2-.178.439-.229.719-.051.28-.084.617-.099 1.009-.015.393-.023.874-.023 1.445 0 .571.008 1.053.023 1.445.015.392.048.729.099 1.008.051.282.127.521.229.719.102.199.24.385.413.559.235.244.518.432.849.565.331.133.675.198 1.032.198.682 0 1.253-.198 1.712-.595.459-.398.759-.933.902-1.606h1.162ZM563.677 461.958v-10.885h6.758v1.039h-5.596v3.838h4.771v1.039h-4.771v3.929h5.596v1.04h-6.758ZM580.097 461.958l-5.779-8.73v8.73h-1.162v-10.885h1.101l5.779 8.698v-8.698h1.162v10.885h-1.101ZM587.847 452.112v9.846h-1.161v-9.846h-3.149v-1.039h7.46v1.039h-3.15ZM599.574 454.115c0-.673-.201-1.175-.605-1.506-.403-.331-.924-.497-1.567-.497h-2.904v3.99h2.904c.643 0 1.164-.163 1.567-.489.404-.326.605-.825.605-1.498Zm.014 7.843-2.477-4.831h-2.613v4.831h-1.163v-10.885h4.175c.469 0 .902.068 1.299.206.398.138.74.336 1.025.596.285.26.506.579.664.956.158.377.238.8.238 1.268 0 .795-.22 1.446-.658 1.949-.439.505-1.01.829-1.713.971l2.584 4.939h-1.361ZM609.709 456.515c0-.571-.008-1.052-.021-1.445a7.219 7.219 0 0 0-.1-1.001 2.593 2.593 0 0 0-.231-.711 2.192 2.192 0 0 0-.412-.558 2.46 2.46 0 0 0-.847-.573 2.666 2.666 0 0 0-2.065 0 2.45 2.45 0 0 0-.849.573 2.27 2.27 0 0 0-.413.558 2.629 2.629 0 0 0-.228.711 6.923 6.923 0 0 0-.1 1.001c-.015.393-.023.874-.023 1.445 0 .571.008 1.053.023 1.445.016.392.047.726.1 1.002.051.274.127.511.228.711.102.198.241.384.413.557.234.244.517.436.849.573.33.138.674.206 1.031.206.358 0 .702-.068 1.034-.206.33-.137.613-.329.847-.573.174-.173.311-.359.412-.557.102-.2.18-.437.231-.711.051-.276.084-.61.1-1.002.013-.392.021-.874.021-1.445Zm1.162 0c0 .581-.004 1.088-.016 1.521a6.81 6.81 0 0 1-.113 1.162c-.066.342-.168.65-.306.925a3.074 3.074 0 0 1-.588.795 3.82 3.82 0 0 1-1.254.84 3.945 3.945 0 0 1-1.53.291c-1.099 0-2.027-.376-2.781-1.131a3.084 3.084 0 0 1-.59-.795 3.628 3.628 0 0 1-.304-.925 6.894 6.894 0 0 1-.116-1.162 73.347 73.347 0 0 1 0-3.042c.01-.433.049-.821.116-1.162a3.64 3.64 0 0 1 .304-.925c.139-.276.334-.54.59-.795.754-.754 1.682-1.131 2.781-1.131 1.102 0 2.03.377 2.784 1.131.254.255.451.519.588.795.138.275.24.584.306.925.067.341.104.729.113 1.162.012.433.016.94.016 1.521ZM625.473 458.365c0 .54-.094 1.037-.284 1.49a3.38 3.38 0 0 1-.794 1.17 3.628 3.628 0 0 1-1.207.757 4.218 4.218 0 0 1-1.522.267 4.2 4.2 0 0 1-1.521-.267 3.42 3.42 0 0 1-1.987-1.927 3.833 3.833 0 0 1-.283-1.49v-7.292h1.162v7.2c0 .418.061.795.184 1.132a2.325 2.325 0 0 0 1.359 1.406 2.85 2.85 0 0 0 1.086.198c.397 0 .76-.065 1.086-.198a2.42 2.42 0 0 0 .832-.551c.23-.234.408-.519.535-.855.127-.337.192-.714.192-1.132v-7.2h1.162v7.292ZM635.715 461.958l-5.779-8.73v8.73h-1.163v-10.885h1.102l5.779 8.698v-8.698h1.162v10.885h-1.101ZM640.27 451.073h1.162v10.885h-1.162zM647.961 461.958h-.947l-3.578-10.885h1.222l2.828 8.806 2.828-8.806h1.223l-3.576 10.885ZM653.539 461.958v-10.885h6.758v1.039h-5.596v3.838h4.772v1.039h-4.772v3.929h5.596v1.04h-6.758ZM669.256 454.115c0-.673-.201-1.175-.604-1.506-.402-.331-.925-.497-1.566-.497h-2.906v3.99h2.906c.641 0 1.164-.163 1.566-.489.403-.326.604-.825.604-1.498Zm.015 7.843-2.476-4.831h-2.615v4.831h-1.162v-10.885h4.173c.469 0 .903.068 1.301.206a2.93 2.93 0 0 1 1.024.596c.285.26.507.579.666.956.158.377.236.8.236 1.268 0 .795-.219 1.446-.658 1.949-.438.505-1.008.829-1.711.971l2.584 4.939h-1.362ZM679.912 458.962c0 .478-.09.909-.267 1.291a2.689 2.689 0 0 1-.764.971 3.597 3.597 0 0 1-1.193.612 5.236 5.236 0 0 1-1.538.213c-.814 0-1.513-.112-2.093-.335-.58-.225-1.127-.592-1.635-1.102l.795-.795c.447.449.9.76 1.359.933.459.173.994.259 1.606.259.795 0 1.422-.175 1.881-.527.458-.351.687-.849.687-1.49 0-.285-.043-.545-.129-.779a1.42 1.42 0 0 0-.391-.582 1.651 1.651 0 0 0-.542-.329 5.46 5.46 0 0 0-.879-.191l-1.27-.198c-.865-.143-1.533-.418-2.002-.826-.551-.49-.826-1.166-.826-2.034 0-.458.082-.879.244-1.26a2.69 2.69 0 0 1 .697-.971 3.17 3.17 0 0 1 1.092-.619 4.404 4.404 0 0 1 1.453-.222c.694 0 1.289.094 1.789.282.498.19.983.493 1.452.91l-.749.75a3.648 3.648 0 0 0-1.085-.696c-.387-.158-.872-.237-1.454-.237-.732 0-1.298.183-1.695.55-.398.367-.598.856-.598 1.467 0 .551.164.969.491 1.254.172.143.388.266.648.368.262.101.533.178.818.229l1.194.183c.254.041.48.085.68.131.199.045.375.098.527.16.152.061.293.13.42.206.129.077.248.166.359.267.611.521.918 1.239.918 2.157ZM682.648 451.073h1.163v10.885h-1.163zM690.461 452.112v9.846h-1.162v-9.846h-3.149v-1.039h7.459v1.039h-3.148ZM698.152 452.739l-2.048 5.748h4.066l-2.018-5.748Zm3.225 9.219-.871-2.461h-4.754l-.871 2.461h-1.238l4.003-10.885h.979l3.99 10.885h-1.238ZM710.918 454.115c0-.673-.201-1.175-.605-1.506-.403-.331-.924-.497-1.567-.497h-2.904v3.99h2.904c.643 0 1.164-.163 1.567-.489.404-.326.605-.825.605-1.498Zm.014 7.843-2.477-4.831h-2.613v4.831h-1.162v-10.885h4.174c.468 0 .902.068 1.298.206.399.138.741.336 1.026.596.285.26.506.579.664.956.158.377.238.8.238 1.268 0 .795-.221 1.446-.658 1.949-.44.505-1.01.829-1.713.971l2.584 4.939h-1.361ZM715.014 451.073h1.162v10.885h-1.162zM725.67 456.515c0-.571-.008-1.052-.022-1.445a7.083 7.083 0 0 0-.099-1.001 2.593 2.593 0 0 0-.231-.711 2.192 2.192 0 0 0-.412-.558 2.46 2.46 0 0 0-.847-.573 2.666 2.666 0 0 0-2.065 0 2.45 2.45 0 0 0-.849.573 2.27 2.27 0 0 0-.413.558 2.629 2.629 0 0 0-.228.711 6.923 6.923 0 0 0-.1 1.001c-.015.393-.023.874-.023 1.445 0 .571.008 1.053.023 1.445.016.392.047.726.1 1.002.051.274.127.511.228.711.102.198.241.384.413.557.234.244.517.436.849.573.33.138.674.206 1.031.206.358 0 .702-.068 1.034-.206.33-.137.613-.329.847-.573.174-.173.311-.359.412-.557.102-.2.18-.437.231-.711.051-.276.084-.61.099-1.002.014-.392.022-.874.022-1.445Zm1.162 0c0 .581-.004 1.088-.016 1.521a6.81 6.81 0 0 1-.113 1.162c-.066.342-.168.65-.307.925a3.046 3.046 0 0 1-.587.795 3.83 3.83 0 0 1-2.784 1.131c-1.099 0-2.027-.376-2.781-1.131a3.084 3.084 0 0 1-.59-.795 3.628 3.628 0 0 1-.304-.925 6.894 6.894 0 0 1-.116-1.162 73.347 73.347 0 0 1 0-3.042c.01-.433.049-.821.116-1.162a3.64 3.64 0 0 1 .304-.925c.139-.276.334-.54.59-.795.754-.754 1.682-1.131 2.781-1.131 1.102 0 2.03.377 2.784 1.131.254.255.451.519.587.795.139.275.241.584.307.925.067.341.104.729.113 1.162.012.433.016.94.016 1.521ZM503.673 474.893c0-.337-.003-.671-.008-1.002a7.894 7.894 0 0 0-.069-.947 3.772 3.772 0 0 0-.214-.849 2.062 2.062 0 0 0-.428-.688 2.356 2.356 0 0 0-.963-.619 3.76 3.76 0 0 0-1.177-.176h-2.37v8.806h2.37c.428 0 .82-.058 1.177-.176.357-.116.677-.323.963-.619.184-.194.326-.436.428-.726.102-.291.173-.601.214-.933.041-.331.064-.674.069-1.032.005-.356.008-.703.008-1.039Zm1.161 0c0 .377-.002.775-.007 1.193a8.899 8.899 0 0 1-.099 1.23 5.136 5.136 0 0 1-.314 1.154 2.891 2.891 0 0 1-.65.979 3.25 3.25 0 0 1-1.192.749c-.469.173-.989.26-1.559.26h-3.731v-10.885h3.731c.57 0 1.09.086 1.559.26a3.25 3.25 0 0 1 1.192.749c.286.285.502.598.65.94.148.341.253.698.314 1.069.061.373.094.755.099 1.148.005.392.007.777.007 1.154ZM507.876 480.458v-10.885h6.757v1.039h-5.594v3.838h4.768v1.039h-4.768v3.929h5.594v1.04h-6.757ZM524.663 470.612v9.846H523.5v-9.846h-3.148v-1.039h7.461v1.039h-3.15ZM530.151 480.458v-10.885h6.758v1.039h-5.596v3.838h4.77v1.039h-4.77v3.929h5.596v1.04h-6.758ZM546.8 477.308c-.092.51-.247.966-.467 1.368a3.428 3.428 0 0 1-.825 1.017 3.65 3.65 0 0 1-1.124.635 4.07 4.07 0 0 1-1.36.221 3.962 3.962 0 0 1-1.522-.291 3.797 3.797 0 0 1-1.261-.84 3.074 3.074 0 0 1-.588-.795 3.553 3.553 0 0 1-.306-.925 7.006 7.006 0 0 1-.115-1.162c-.01-.433-.015-.94-.015-1.521s.005-1.088.015-1.521c.01-.433.049-.821.115-1.162.066-.341.168-.65.306-.925.138-.276.333-.54.588-.795a3.8 3.8 0 0 1 1.261-.841 4 4 0 0 1 1.522-.29c.489 0 .942.073 1.36.222.418.147.793.359 1.124.634.331.275.606.614.825 1.016.22.403.375.86.467 1.369h-1.193c-.142-.673-.438-1.208-.886-1.605-.449-.398-1.014-.597-1.697-.597-.357 0-.701.067-1.032.199a2.371 2.371 0 0 0-.848.566 2.264 2.264 0 0 0-.414.557c-.102.2-.178.439-.229.719-.051.28-.084.617-.099 1.009-.015.393-.023.874-.023 1.445 0 .571.008 1.053.023 1.445.015.392.048.729.099 1.008.051.282.127.521.229.719.103.199.24.385.414.559.234.244.517.432.848.565.331.133.675.198 1.032.198.683 0 1.253-.198 1.712-.595.459-.398.759-.933.902-1.606h1.162ZM556.615 480.458l-5.779-8.73v8.73h-1.162v-10.885h1.1l5.779 8.698v-8.698h1.162v10.885h-1.1ZM567.209 475.015c0-.571-.007-1.052-.023-1.445a7.219 7.219 0 0 0-.1-1.001 2.594 2.594 0 0 0-.228-.711 2.225 2.225 0 0 0-.414-.558 2.455 2.455 0 0 0-.848-.573 2.662 2.662 0 0 0-2.064 0c-.33.137-.614.328-.848.573-.174.173-.31.36-.413.558a2.56 2.56 0 0 0-.229.711 7.219 7.219 0 0 0-.1 1.001c-.015.393-.023.874-.023 1.445 0 .571.008 1.053.023 1.445.016.392.049.726.1 1.002.051.274.126.511.229.711.103.198.239.384.413.557.234.244.518.436.848.573.332.138.676.206 1.033.206.355 0 .699-.068 1.031-.206.332-.137.613-.329.848-.573a2.22 2.22 0 0 0 .414-.557c.101-.2.178-.437.228-.711.051-.276.084-.61.1-1.002s.023-.874.023-1.445Zm1.163 0c0 .581-.006 1.088-.016 1.521-.01.433-.049.821-.115 1.162-.067.342-.168.65-.305.925a3.084 3.084 0 0 1-.59.795 3.81 3.81 0 0 1-1.254.84 3.934 3.934 0 0 1-1.527.291c-1.102 0-2.029-.376-2.783-1.131a3.079 3.079 0 0 1-.589-.795 3.59 3.59 0 0 1-.305-.925 6.9 6.9 0 0 1-.115-1.162c-.01-.433-.015-.94-.015-1.521s.005-1.088.015-1.521a6.9 6.9 0 0 1 .115-1.162c.066-.341.168-.65.305-.925.138-.276.334-.54.589-.795.754-.754 1.681-1.131 2.783-1.131 1.1 0 2.027.377 2.781 1.131.256.255.451.519.59.795.137.275.238.584.305.925.066.341.105.729.115 1.162.01.433.016.94.016 1.521ZM571.414 480.458v-10.885h1.162v9.845h5.565v1.04h-6.727ZM585.967 475.015c0-.571-.008-1.052-.022-1.445a7.219 7.219 0 0 0-.1-1.001 2.628 2.628 0 0 0-.229-.711 2.245 2.245 0 0 0-.413-.558 2.464 2.464 0 0 0-.848-.573 2.664 2.664 0 0 0-2.064 0 2.45 2.45 0 0 0-.849.573c-.173.173-.311.36-.412.558a2.56 2.56 0 0 0-.23.711 7.083 7.083 0 0 0-.099 1.001 36.66 36.66 0 0 0-.023 1.445c0 .571.007 1.053.023 1.445.015.392.048.726.099 1.002.051.274.127.511.23.711.101.198.239.384.412.557.234.244.517.436.849.573.331.138.674.206 1.032.206.356 0 .7-.068 1.032-.206.331-.137.613-.329.848-.573a2.24 2.24 0 0 0 .413-.557c.101-.2.178-.437.229-.711.051-.276.084-.61.1-1.002.014-.392.022-.874.022-1.445Zm1.162 0c0 .581-.004 1.088-.015 1.521-.01.433-.048.821-.114 1.162a3.59 3.59 0 0 1-.306.925 3.079 3.079 0 0 1-.589.795 3.81 3.81 0 0 1-1.254.84 3.939 3.939 0 0 1-1.528.291c-1.101 0-2.029-.376-2.782-1.131a3.056 3.056 0 0 1-.589-.795 3.553 3.553 0 0 1-.306-.925 7.115 7.115 0 0 1-.115-1.162c-.01-.433-.015-.94-.015-1.521s.005-1.088.015-1.521c.011-.433.049-.821.115-1.162.066-.341.168-.65.306-.925.137-.276.334-.54.589-.795.753-.754 1.681-1.131 2.782-1.131 1.1 0 2.028.377 2.782 1.131.255.255.451.519.589.795.138.275.239.584.306.925.066.341.104.729.114 1.162.011.433.015.94.015 1.521ZM597.402 476.483c0 .632-.07 1.169-.213 1.612a3.13 3.13 0 0 1-.718 1.201 3.83 3.83 0 0 1-1.323.94 4.02 4.02 0 0 1-1.582.313c-.54 0-1.047-.096-1.522-.291a3.783 3.783 0 0 1-1.26-.84 3.079 3.079 0 0 1-.589-.795 3.59 3.59 0 0 1-.306-.925 7.115 7.115 0 0 1-.115-1.162c-.01-.433-.015-.94-.015-1.521s.005-1.088.015-1.521c.011-.433.049-.821.115-1.162.067-.341.168-.65.306-.925.138-.276.334-.54.589-.795.754-.754 1.681-1.131 2.782-1.131.519 0 .996.079 1.43.236a3.526 3.526 0 0 1 1.942 1.706c.208.397.353.835.435 1.314h-1.163c-.152-.692-.46-1.235-.924-1.628-.464-.393-1.037-.589-1.72-.589-.358 0-.701.069-1.032.207a2.459 2.459 0 0 0-.849.573 2.24 2.24 0 0 0-.412.558 2.56 2.56 0 0 0-.23.711 7.083 7.083 0 0 0-.099 1.001 36.66 36.66 0 0 0-.023 1.445c0 .571.007 1.053.023 1.445.015.392.048.729.099 1.008.051.282.127.521.23.719.102.199.239.385.412.559.234.244.518.432.849.565a2.818 2.818 0 0 0 2.171-.038c.362-.158.67-.39.924-.696.225-.265.383-.553.475-.863.092-.311.138-.681.138-1.109v-.825h-2.676v-1.024h3.836v1.727ZM601.439 468.517h-1.009l1.345-2.339h1.315l-1.651 2.339Zm-1.025 11.941v-10.885h1.162v10.885h-1.162ZM608.15 471.239l-2.048 5.748h4.068l-2.02-5.748Zm3.227 9.219-.871-2.461h-4.756l-.871 2.461h-1.238l4.005-10.885h.979l3.99 10.885h-1.238ZM621.742 475.963v4.495h-1.162v-4.495l-3.242-6.39h1.254l2.568 5.213 2.539-5.213h1.252l-3.209 6.39ZM634.188 471.239l-2.049 5.748h4.066l-2.017-5.748Zm3.224 9.219-.871-2.461h-4.754l-.871 2.461h-1.238l4.004-10.885h.978l3.99 10.885h-1.238ZM646.953 472.615c0-.673-.201-1.175-.605-1.506-.403-.331-.924-.497-1.567-.497h-2.904v3.99h2.904c.643 0 1.164-.163 1.567-.489.404-.326.605-.825.605-1.498Zm.014 7.843-2.477-4.831h-2.613v4.831h-1.162v-10.885h4.174c.468 0 .902.068 1.299.206.398.138.74.336 1.025.596.285.26.506.579.664.956.158.377.238.8.238 1.268 0 .795-.22 1.446-.658 1.949-.439.505-1.01.829-1.713.971l2.584 4.939h-1.361ZM654.244 470.612v9.846h-1.16v-9.846h-3.15v-1.039h7.461v1.039h-3.151ZM659.732 480.458v-10.885h6.758v1.039h-5.595v3.838h4.771v1.039h-4.771v3.929h5.595v1.04h-6.758ZM679.715 474.893c0-.337-.002-.671-.008-1.002a8.111 8.111 0 0 0-.068-.947 3.827 3.827 0 0 0-.215-.849 2.062 2.062 0 0 0-.428-.688 2.356 2.356 0 0 0-.963-.619 3.766 3.766 0 0 0-1.178-.176h-2.369v8.806h2.369c.428 0 .821-.058 1.178-.176.356-.116.678-.323.963-.619.184-.194.326-.436.428-.726.101-.291.174-.601.215-.933a9.72 9.72 0 0 0 .068-1.032c.006-.356.008-.703.008-1.039Zm1.162 0c0 .377-.004.775-.008 1.193a9.22 9.22 0 0 1-.099 1.23 5.188 5.188 0 0 1-.313 1.154 2.906 2.906 0 0 1-.65.979 3.266 3.266 0 0 1-1.194.749c-.468.173-.988.26-1.558.26h-3.731v-10.885h3.731c.57 0 1.09.086 1.558.26.469.173.867.423 1.194.749.285.285.502.598.65.94.147.341.252.698.313 1.069.06.373.093.755.099 1.148.004.392.008.777.008 1.154ZM683.918 469.573h1.162v10.885h-1.162zM695.768 476.483c0 .632-.073 1.169-.215 1.612a3.12 3.12 0 0 1-.719 1.201 3.818 3.818 0 0 1-1.322.94 4.02 4.02 0 0 1-1.582.313 3.97 3.97 0 0 1-1.522-.291 3.793 3.793 0 0 1-1.26-.84 3.079 3.079 0 0 1-.589-.795 3.59 3.59 0 0 1-.305-.925 6.9 6.9 0 0 1-.115-1.162c-.01-.433-.016-.94-.016-1.521s.006-1.088.016-1.521a6.9 6.9 0 0 1 .115-1.162c.066-.341.168-.65.305-.925.138-.276.334-.54.589-.795.754-.754 1.682-1.131 2.782-1.131.519 0 .996.079 1.429.236a3.51 3.51 0 0 1 1.942 1.706c.209.397.353.835.435 1.314h-1.162c-.152-.692-.461-1.235-.924-1.628-.464-.393-1.037-.589-1.72-.589-.358 0-.701.069-1.032.207a2.45 2.45 0 0 0-.849.573 2.24 2.24 0 0 0-.412.558 2.594 2.594 0 0 0-.229.711 6.798 6.798 0 0 0-.099 1.001c-.016.393-.024.874-.024 1.445 0 .571.008 1.053.024 1.445.015.392.046.729.099 1.008.051.282.127.521.229.719.101.199.24.385.412.559.234.244.517.432.849.565.331.133.674.198 1.032.198.398 0 .777-.078 1.138-.236.364-.158.67-.39.926-.696.225-.265.383-.553.475-.863.092-.311.136-.681.136-1.109v-.825h-2.675v-1.024h3.838v1.727ZM698.779 469.573h1.162v10.885h-1.162zM706.592 470.612v9.846h-1.162v-9.846h-3.149v-1.039h7.459v1.039h-3.148ZM714.283 471.239l-2.049 5.748h4.067l-2.018-5.748Zm3.225 9.219-.871-2.461h-4.754l-.871 2.461h-1.239l4.004-10.885h.979l3.99 10.885h-1.238ZM720.811 480.458v-10.885h1.162v9.845h5.564v1.04h-6.726Z" style="fill:currentColor;fill-rule:nonzero" transform="translate(-1902.66 -1493.36) scale(4.16667)"/></svg>