
<svg xmlns="http://www.w3.org/2000/svg" width="200" height="30.277" viewBox="0 0 160 24.222"><path d="M335.08 40.21c25.84-2 52.81 3.53 74.45 18.2 20.19 13.42 34.82 34.41 41.75 57.54 8.12 27.27 7.71 57.31-2.67 83.93-8.57 22.21-24.34 41.68-44.68 54.14-23.91 14.73-53.46 19.27-80.91 14.07-24.98-4.52-48.22-18.19-64.09-38.02-19.41-23.82-28.05-55.56-25.32-85.98 1.78-27.15 12.46-54.23 32.02-73.48 18.27-18.43 43.76-28.62 69.45-30.4m-1.54 33.47c-15.17 2.63-28.87 11.43-38.34 23.46-14.1 17.9-20.01 41.33-18.82 63.87 1.16 18.38 6.54 36.95 17.86 51.71 8.42 11.12 20.61 19.44 34.23 22.63 16.24 3.86 34.15 2.23 48.76-6.16 13.76-7.83 23.71-21.19 29.43-35.77 9.2-23.66 9.68-50.78.47-74.51-5.29-13.72-14.06-26.36-26.12-34.94-13.51-9.82-31.14-13.29-47.47-10.29zM566.98 44.95c18.16-5.47 37.51-6.36 56.22-3.55 9.88 1.48 19.75 3.49 29.08 7.15-1.34 11.21-2.53 22.45-3.33 33.72-12.7-5.32-26.24-8.79-40.01-9.5-15.35-.95-31.19 3.25-43.51 12.61-16.48 12.33-26.35 31.87-29.84 51.87-3.39 20.08-1.2 41.31 7.36 59.88 6.28 13.62 16.73 25.5 30.14 32.42 24.4 12.29 54.98 9.49 77.9-4.85.71 12.16 1.99 24.27 2.76 36.43-15.56 7.04-32.86 8.89-49.76 9.05-22.14.13-44.54-5.72-63.02-18.1-14.77-9.7-26.99-23.16-35.44-38.66-11.41-20.8-16.15-45.06-14.24-68.65 1.6-23.89 9.71-47.75 25.05-66.35 12.92-16.01 30.94-27.67 50.64-33.47zM727.2 56.09c17.27-11.43 38.21-16.54 58.79-16.27 17.93.26 36.38 3.75 51.71 13.48 14.2 8.75 24.75 22.53 31.27 37.74 9.81 22.98 12.53 48.34 12.38 73.13-52.28 0-104.55-.02-156.82 0-.02 17.82 6.27 35.76 18.27 49.04 15.32 17.35 39.35 26.4 62.3 23.65 16.84-1.63 33.22-6.98 48.3-14.54 3.96-1.99 7.79-4.28 11.25-7.05-.14 13.53-.07 27.07-.04 40.61-11.84 4.59-23.81 9.11-36.35 11.37-20.36 3.68-41.37 3.99-61.76.44-19.19-3.42-37.98-11.36-52.21-24.93-11.73-10.87-20.03-25.03-25.16-40.1-4.98-15.03-7.4-30.88-7.56-46.7-.68-18.99 2.18-38.28 9.62-55.84 7.41-17.73 19.87-33.49 36.01-44.03m14.62 34.74c-10.36 11.9-15.29 27.42-17.43 42.82 6.85.41 13.71.08 20.56.19 31.18-.01 62.37.01 93.55-.01-.38-16.2-4.8-33.13-16.23-45.13-20.64-22.52-60.89-21.16-80.45 2.13zM1010.02 43.87c16.36-5.06 33.99-5.13 50.68-1.65 13.44 2.84 26.33 9.2 35.87 19.22 8.96 9.41 14.87 21.39 18.21 33.87 3.39 12.58 4.74 25.67 4.57 38.68-.01 43.67 0 87.34 0 131.01h-40.51c-.01-31.34 0-62.67 0-94-.13-20.12 1.01-40.52-3.59-60.27-2.64-11.53-7.87-23.19-17.78-30.21-9.67-6.62-22-8.88-33.51-7.37-14.13 1.24-27.87 7.73-37.29 18.42-10.2 11.5-15.69 26.39-18.49 41.32-3.58 18.48-2.41 37.37-2.6 56.07 0 25.34-.01 50.69.01 76.03-13.59.02-27.17.01-40.75.01-.01-73.33-.01-146.67 0-220h39.32c.12 11.81-.23 23.62.19 35.41 2.09-2.67 3.47-5.81 5.45-8.56 9.54-13.73 24.37-23.17 40.22-27.98zM1415.17 40.24c22.28-1.76 45.29 2.05 65.17 12.5 15.41 8.13 28.68 20.24 38.11 34.89 10.07 15.5 15.91 33.54 17.85 51.86 2.88 24.32-1.16 49.6-12.4 71.43-8.17 15.9-20.25 29.79-34.94 39.99-31.8 22.04-75.11 25.08-110.31 9.55-18.16-8.14-34-21.4-45.08-37.95-10.84-15.91-17.37-34.59-19.44-53.7-2.16-22.28.6-45.31 9.7-65.88 7.47-17.2 19.64-32.38 34.98-43.19 16.47-11.65 36.31-18.05 56.36-19.5m-1.65 33.48c-13.92 2.52-26.71 10.17-35.92 20.86-11.29 12.95-17.77 29.57-20.14 46.46-2.78 21.28.62 43.64 11.01 62.54 7.64 13.93 20.14 25.46 35.4 30.4 17.67 5.61 37.86 4.37 54.04-5.01 12.51-7.31 21.91-19.16 27.66-32.33 8.83-20.31 10.73-43.5 5.76-65.04-4.08-17.49-13.11-34.25-27.28-45.58-13.93-11.35-32.97-15.61-50.53-12.3zM15.36 45.01c14.86-.02 29.72 0 44.58-.01 19.2 58.36 38.72 116.62 57.95 174.97.55 1.65 1.18 3.27 1.83 4.9 6.91-19.01 13.06-38.31 19.69-57.43 13.81-40.82 27.74-81.61 41.52-122.44 13.52.01 27.04-.03 40.56.02-26.23 73.33-52.59 146.62-78.81 219.96-16.17.05-32.33 0-48.5.02C68 191.64 41.63 118.34 15.36 45.01zM1141.84 45h148.32v33c-19.39.01-38.77 0-58.16 0 0 40.67-.01 81.35.01 122.02.08 11.14 4.17 22.8 12.97 30.01 5.56 4.7 12.79 7 20 7.34 9.92.03 20.04-2.3 28.42-7.78-.11 11.51-.03 23.02-.05 34.53-12.43 3.64-25.29 6.56-38.32 6.01-11.04-.52-22.22-2.24-32.34-6.87-10.27-4.66-19.06-12.72-24.11-22.85-5.15-9.97-7.06-21.29-7.15-32.43-.02-43.32-.01-86.65-.01-129.98-16.53-.01-33.06.01-49.58 0-.01-11-.01-22 0-33z" style="fill:#007dc3" transform="matrix(.10514 0 0 .10514 -1.615 -4.185)"/></svg>